# xmcd
#
# Track frame offsets:
#	182
#	12240
#	35860
#	47867
#	66025
#	86862
#	101975
#	115467
#	127900
#	145037
#	156947
#	169172
#	187902
#	204797
#	218000
#	236262
#	250187
#	262857
#
# Disc length: 3686 seconds
#
# Revision: 3
# Processed by: cddbd v1.5.2PL0 Copyright (c) Steve Scherf et al.
# Submitted via: audiograbber 1.83.01
#
DISCID=f70e6412
DTITLE=Duster Bennett - Jumpin´ At Shadows
DYEAR=1994
DGENRE=Blues
TTITLE0=Morning Star
TTITLE1=I´ve Got To Be With You Tonight
TTITLE2=California Zephyr
TTITLE3=Blue River Rising
TTITLE4=Cold Chills
TTITLE5=I´ve Learnt To Love (Since I´ve Been With You)
TTITLE6=Bright Light Big City
TTITLE7=Worried Mind
TTITLE8=I Need A Little Sugar In My Bowl
TTITLE9=Georgina (Bennett)
TTITLE10=Ride With Your Daddy Tonight
TTITLE11=Jumpin´ At Shadows
TTITLE12=Love Me Like You Can
TTITLE13=A Long Way To Go
TTITLE14=Lone Wolf Blues
TTITLE15=Fresh Country Jam
TTITLE16=Sweet Sympathy
TTITLE17=The Rolling Stone
EXTD=
EXTT0=
EXTT1=
EXTT2=
EXTT3=
EXTT4=
EXTT5=
EXTT6=
EXTT7=
EXTT8=
EXTT9=
EXTT10=
EXTT11=
EXTT12=
EXTT13=
EXTT14=
EXTT15=
EXTT16=
EXTT17=
PLAYORDER=
